<svg width="55" height="53" viewBox="0 0 55 53" fill="none" xmlns="http://www.w3.org/2000/svg">
<path d="M40.6771 0H2.29167C1.02601 0 0 0.978512 0 2.18557V38.7938C0 40.0009 1.02601 40.9794 2.29167 40.9794H40.6771C41.9427 40.9794 42.9688 40.0009 42.9688 38.7938V2.18557C42.9688 0.978512 41.9427 0 40.6771 0Z" fill="#A47F6A"/>
<path d="M19.9089 2.86856H3.00781V18.9871H19.9089V2.86856Z" fill="#FFF5F0" stroke="#FF8743"/>
<path d="M19.9089 21.9923H3.00781V38.1108H19.9089V21.9923Z" fill="#FFF5F0" stroke="#FF8743"/>
<path d="M39.9609 21.9923H23.0599V38.1108H39.9609V21.9923Z" fill="#FFF5F0" stroke="#FF8743"/>
<path d="M39.9609 2.86856H23.0599V18.9871H39.9609V2.86856Z" fill="#FFF5F0" stroke="#FF8743"/>
<g filter="url(#filter0_d_8_31)">
<path d="M17.4596 37.9256C17.1155 37.3833 16.6592 37.2765 16.0906 37.6046L13.6741 38.999C13.1055 39.3271 12.9932 39.7623 13.3372 40.3046L16.0897 44.6427C16.4337 45.185 16.89 45.292 17.4586 44.9639L19.8752 43.5695C20.4438 43.2414 20.556 42.8062 20.212 42.2639L17.4596 37.9256ZM22.7707 40.7873C23.3727 41.7361 23.584 42.559 23.4043 43.2551C23.2285 43.937 22.643 44.5651 21.6479 45.1393L18.0942 47.1899C17.0992 47.7642 16.2395 47.9702 15.5151 47.8079C14.7945 47.6311 14.1331 47.0684 13.531 46.1193L10.7786 41.7812C10.1765 40.8321 9.9634 40.0169 10.1393 39.335C10.3189 38.6386 10.9062 38.0035 11.9013 37.4292L15.455 35.3783C16.45 34.8041 17.3079 34.6054 18.0285 34.7822C18.7529 34.9445 19.4161 35.5002 20.0182 36.4492L22.7707 40.7873ZM27.5244 37.8589L26.4582 38.4742L28.1785 41.1854L25.6909 42.621L21.1322 35.436L23.6198 34.0003L25.2971 36.644L26.4343 35.9875L26.2699 34.0451C26.1872 33.3028 26.3832 32.6526 26.8578 32.0948C27.0299 31.8967 27.2154 31.7402 27.4144 31.6254C27.7366 31.4394 28.0448 31.2924 28.3388 31.1845L28.7372 31.0473L29.8982 32.8775L29.4009 33.1646C29.0787 33.3504 28.9277 33.6228 28.948 33.9815L29.0976 35.7471L33.509 38.1092L30.8083 39.6678L27.5244 37.8589ZM43.0275 32.6163L40.4688 34.0929L38.0173 30.2294L34.4638 32.28L36.915 36.1438L34.3564 37.6202L28.3355 28.1304L30.8942 26.654L33.2595 30.3821L36.8133 28.3312L34.4478 24.6032L37.0064 23.1267L43.0275 32.6163ZM46.4647 28.2252C46.9668 27.9354 47.4782 27.5168 47.9984 26.9697L47.4825 26.1563L45.4211 27.3458C45.279 27.4278 45.1894 27.5414 45.1519 27.6865C45.1143 27.8316 45.1387 27.9717 45.2249 28.1072L45.3108 28.243C45.3968 28.3785 45.5159 28.464 45.668 28.4998C45.8202 28.5356 45.9671 28.5124 46.1092 28.4301L46.4647 28.2252ZM40.4806 24.4556C42.0999 23.2741 43.6064 22.2814 44.9995 21.4775C45.6437 21.1056 46.2776 20.9928 46.9013 21.1392C47.5252 21.2855 48.0319 21.666 48.4218 22.2805L51.7762 27.5676L49.573 28.8391L49.0007 28.2433C48.7332 28.7806 48.4054 29.2535 48.0176 29.6625C47.6334 30.057 47.2802 30.3474 46.9583 30.5332L46.4607 30.8203C45.8161 31.1921 45.1822 31.305 44.5586 31.1588C43.935 31.0124 43.4282 30.6318 43.0381 30.0174L42.6511 29.4073C42.2612 28.7927 42.1429 28.1881 42.2964 27.5933C42.45 26.9985 42.8487 26.5152 43.4933 26.1433L46.4071 24.4617L46.0631 23.9194C45.9771 23.7838 45.858 23.6982 45.7059 23.6625C45.5537 23.6268 45.4068 23.65 45.2647 23.732C44.6485 24.0875 43.9834 24.5084 43.2692 24.9946C42.5646 25.4754 41.9934 25.8606 41.5557 26.1502L40.4806 24.4556Z" fill="#FF8743"/>
</g>
<defs>
<filter id="filter0_d_8_31" x="10.0796" y="21.0772" width="44.6966" height="29.7844" filterUnits="userSpaceOnUse" color-interpolation-filters="sRGB">
<feFlood flood-opacity="0" result="BackgroundImageFix"/>
<feColorMatrix in="SourceAlpha" type="matrix" values="0 0 0 0 0 0 0 0 0 0 0 0 0 0 0 0 0 0 127 0" result="hardAlpha"/>
<feOffset dx="3" dy="3"/>
<feComposite in2="hardAlpha" operator="out"/>
<feColorMatrix type="matrix" values="0 0 0 0 0 0 0 0 0 0 0 0 0 0 0 0 0 0 0.7 0"/>
<feBlend mode="normal" in2="BackgroundImageFix" result="effect1_dropShadow_8_31"/>
<feBlend mode="normal" in="SourceGraphic" in2="effect1_dropShadow_8_31" result="shape"/>
</filter>
</defs>
</svg>
