<svg width="246" height="150" viewBox="0 0 246 150" fill="none" xmlns="http://www.w3.org/2000/svg">
<rect x="3.05176e-05" y="3.05176e-05" width="150" height="150" fill="#363636"/>
<rect x="12" y="12" width="56" height="56" fill="white" stroke="#1D98DB" stroke-width="4"/>
<rect x="12" y="82" width="56" height="56" fill="white" stroke="#1D98DB" stroke-width="4"/>
<rect x="82" y="82" width="161.551" height="56" fill="white" stroke="#1D98DB" stroke-width="4"/>
<rect x="82" y="12" width="56" height="56" fill="white" stroke="#1D98DB" stroke-width="4"/>
<path d="M117.325 99.95C117.325 97.75 116.225 96.65 114.025 96.65H104.675C102.475 96.65 101.375 97.75 101.375 99.95V117.55C101.375 119.75 102.475 120.85 104.675 120.85H114.025C116.225 120.85 117.325 119.75 117.325 117.55V99.95ZM127.225 117.55C127.225 121.4 126.345 124.205 124.585 125.965C122.862 127.688 120.075 128.55 116.225 128.55H102.475C98.6253 128.55 95.8203 127.688 94.0603 125.965C92.3369 124.205 91.4753 121.4 91.4753 117.55V99.95C91.4753 96.1 92.3369 93.3133 94.0603 91.59C95.8203 89.83 98.6253 88.95 102.475 88.95H116.225C120.075 88.95 122.862 89.83 124.585 91.59C126.345 93.3133 127.225 96.1 127.225 99.95V117.55ZM145.951 117H141.826V128H132.201V98.85H141.826V109.575H146.226L149.251 103.525C150.351 101.178 152.074 99.5833 154.421 98.74C155.264 98.4467 156.071 98.3 156.841 98.3C158.088 98.3 159.224 98.3917 160.251 98.575L161.626 98.85V106.275H159.701C158.454 106.275 157.538 106.825 156.951 107.925L154.201 113.425L162.451 128H152.001L145.951 117ZM199.28 128H189.38V112.325H175.63V128H165.73V89.5H175.63V104.625H189.38V89.5H199.28V128ZM216.905 120.85C218.849 120.85 221.049 120.483 223.505 119.75V116.45H215.53C214.98 116.45 214.522 116.633 214.155 117C213.789 117.367 213.605 117.825 213.605 118.375V118.925C213.605 119.475 213.789 119.933 214.155 120.3C214.522 120.667 214.98 120.85 215.53 120.85H216.905ZM206.73 99.4C213.44 98.6667 219.49 98.3 224.88 98.3C227.374 98.3 229.372 99.0517 230.875 100.555C232.379 102.058 233.13 104.057 233.13 106.55V128H224.605L224.055 125.25C222.332 126.387 220.554 127.23 218.72 127.78C216.924 128.293 215.402 128.55 214.155 128.55H212.23C209.737 128.55 207.739 127.798 206.235 126.295C204.732 124.792 203.98 122.793 203.98 120.3V117.825C203.98 115.332 204.732 113.333 206.235 111.83C207.739 110.327 209.737 109.575 212.23 109.575H223.505V107.375C223.505 106.825 223.322 106.367 222.955 106C222.589 105.633 222.13 105.45 221.58 105.45C219.197 105.45 216.557 105.56 213.66 105.78C210.8 106 208.49 106.165 206.73 106.275V99.4Z" fill="#1D98DB"/>
</svg>
