<svg width="236" height="133" viewBox="0 0 236 133" fill="none" xmlns="http://www.w3.org/2000/svg">
<rect x="2.00003" y="2" width="56" height="56" fill="#1D98DB" stroke="#1D98DB" stroke-width="4"/>
<rect x="2.00003" y="72" width="56" height="56" fill="#1D98DB" stroke="#1D98DB" stroke-width="4"/>
<rect x="72" y="72" width="161.551" height="56" fill="#1D98DB" stroke="#1D98DB" stroke-width="4"/>
<rect x="72" y="2" width="56" height="56" fill="#1D98DB" stroke="#1D98DB" stroke-width="4"/>
<path d="M107.325 89.95C107.325 87.75 106.225 86.65 104.025 86.65H94.6753C92.4753 86.65 91.3753 87.75 91.3753 89.95V107.55C91.3753 109.75 92.4753 110.85 94.6753 110.85H104.025C106.225 110.85 107.325 109.75 107.325 107.55V89.95ZM117.225 107.55C117.225 111.4 116.345 114.205 114.585 115.965C112.862 117.688 110.075 118.55 106.225 118.55H92.4753C88.6253 118.55 85.8203 117.688 84.0603 115.965C82.3369 114.205 81.4753 111.4 81.4753 107.55V89.95C81.4753 86.1 82.3369 83.3133 84.0603 81.59C85.8203 79.83 88.6253 78.95 92.4753 78.95H106.225C110.075 78.95 112.862 79.83 114.585 81.59C116.345 83.3133 117.225 86.1 117.225 89.95V107.55ZM131.826 106.45V118H122.201V79.5H131.826V99.025H136.226L142.276 88.85H152.451L144.201 102.875L152.451 118H142.276L135.951 106.45H131.826ZM189.28 118H179.38V102.325H165.63V118H155.73V79.5H165.63V94.625H179.38V79.5H189.28V118ZM202.78 118H192.055L206.63 79.5H217.63L232.205 118H221.48L219.005 111.125H205.255L202.78 118ZM207.73 103.975H216.53L212.13 91.05L207.73 103.975Z" fill="white"/>
</svg>
