<svg width="237" height="133" viewBox="0 0 237 133" fill="none" xmlns="http://www.w3.org/2000/svg">
<rect x="2" y="2" width="56" height="56" fill="white" stroke="white" stroke-width="4"/>
<rect x="2" y="72" width="56" height="56" fill="white" stroke="white" stroke-width="4"/>
<rect x="72" y="72" width="161.551" height="56" fill="white" stroke="white" stroke-width="4"/>
<rect x="72" y="2" width="56" height="56" fill="white" stroke="white" stroke-width="4"/>
<path d="M107.325 89.95C107.325 87.75 106.225 86.65 104.025 86.65H94.6752C92.4752 86.65 91.3752 87.75 91.3752 89.95V107.55C91.3752 109.75 92.4752 110.85 94.6752 110.85H104.025C106.225 110.85 107.325 109.75 107.325 107.55V89.95ZM117.225 107.55C117.225 111.4 116.345 114.205 114.585 115.965C112.862 117.688 110.075 118.55 106.225 118.55H92.4752C88.6252 118.55 85.8202 117.688 84.0602 115.965C82.3369 114.205 81.4752 111.4 81.4752 107.55V89.95C81.4752 86.1 82.3369 83.3133 84.0602 81.59C85.8202 79.83 88.6252 78.95 92.4752 78.95H106.225C110.075 78.95 112.862 79.83 114.585 81.59C116.345 83.3133 117.225 86.1 117.225 89.95V107.55ZM132.651 118H122.751V79.5H132.651V94.625H137.601L146.181 79.5H156.631L145.851 98.475L156.576 118H146.126L137.601 102.325H132.651V118ZM193.469 118H183.569V102.325H169.819V118H159.919V79.5H169.819V94.625H183.569V79.5H193.469V118ZM206.97 118H196.245L210.82 79.5H221.82L236.395 118H225.67L223.195 111.125H209.445L206.97 118ZM211.92 103.975H220.72L216.32 91.05L211.92 103.975Z" fill="#1D98DB"/>
</svg>
