<svg width="150" height="150" viewBox="0 0 150 150" fill="none" xmlns="http://www.w3.org/2000/svg">
<rect width="150" height="150" fill="#363636"/>
<rect x="12" y="12" width="56" height="56" fill="white" stroke="#1D98DB" stroke-width="4"/>
<rect x="12" y="82" width="56" height="56" fill="white" stroke="#1D98DB" stroke-width="4"/>
<rect x="82" y="82" width="56" height="56" fill="white" stroke="#1D98DB" stroke-width="4"/>
<rect x="82" y="12" width="56" height="56" fill="white" stroke="#1D98DB" stroke-width="4"/>
<path d="M34.36 33.14C34.36 31.7 33.64 30.98 32.2 30.98H26.08C24.64 30.98 23.92 31.7 23.92 33.14V44.66C23.92 46.1 24.64 46.82 26.08 46.82H32.2C33.64 46.82 34.36 46.1 34.36 44.66V33.14ZM40.84 44.66C40.84 47.18 40.264 49.016 39.112 50.168C37.984 51.296 36.16 51.86 33.64 51.86H24.64C22.12 51.86 20.284 51.296 19.132 50.168C18.004 49.016 17.44 47.18 17.44 44.66V33.14C17.44 30.62 18.004 28.796 19.132 27.668C20.284 26.516 22.12 25.94 24.64 25.94H33.64C36.16 25.94 37.984 26.516 39.112 27.668C40.264 28.796 40.84 30.62 40.84 33.14V44.66ZM53.0969 44.3H50.3969V51.5H44.0969V32.42H50.3969V39.44H53.2769L55.2569 35.48C55.9769 33.944 57.1049 32.9 58.6409 32.348C59.1929 32.156 59.7209 32.06 60.2249 32.06C61.0409 32.06 61.7849 32.12 62.4569 32.24L63.3569 32.42V37.28H62.0969C61.2809 37.28 60.6809 37.64 60.2969 38.36L58.4969 41.96L63.8969 51.5H57.0569L53.0969 44.3ZM109.589 51.5H103.109V41.24H94.1088V51.5H87.6288V26.3H94.1088V36.2H103.109V26.3L109.589 26.3V51.5ZM121.126 46.82C122.398 46.82 123.838 46.58 125.446 46.1V43.94H120.226C119.866 43.94 119.566 44.06 119.326 44.3C119.086 44.54 118.966 44.84 118.966 45.2V45.56C118.966 45.92 119.086 46.22 119.326 46.46C119.566 46.7 119.866 46.82 120.226 46.82H121.126ZM114.466 32.78C118.858 32.3 122.818 32.06 126.346 32.06C127.978 32.06 129.286 32.552 130.27 33.536C131.254 34.52 131.746 35.828 131.746 37.46V51.5H126.166L125.806 49.7C124.678 50.444 123.514 50.996 122.314 51.356C121.138 51.692 120.142 51.86 119.326 51.86H118.066C116.434 51.86 115.126 51.368 114.142 50.384C113.158 49.4 112.666 48.092 112.666 46.46V44.84C112.666 43.208 113.158 41.9 114.142 40.916C115.126 39.932 116.434 39.44 118.066 39.44H125.446V38C125.446 37.64 125.326 37.34 125.086 37.1C124.846 36.86 124.546 36.74 124.186 36.74C122.626 36.74 120.898 36.812 119.002 36.956C117.13 37.1 115.618 37.208 114.466 37.28V32.78Z" fill="#1D98DB"/>
<path d="M39.112 50.168L38.4049 49.4609L38.4049 49.4609L39.112 50.168ZM19.132 50.168L18.4175 50.8676L18.4249 50.8751L18.4324 50.8825L19.132 50.168ZM19.132 27.668L18.4249 26.9609L18.4249 26.9609L19.132 27.668ZM39.112 27.668L38.3975 28.3676L38.4049 28.3751L38.4124 28.3825L39.112 27.668ZM35.36 33.14C35.36 32.2659 35.1408 31.4266 34.5271 30.8129C33.9134 30.1992 33.0741 29.98 32.2 29.98V31.98C32.7659 31.98 33.0066 32.1208 33.1129 32.2271C33.2192 32.3334 33.36 32.5741 33.36 33.14H35.36ZM32.2 29.98H26.08V31.98H32.2V29.98ZM26.08 29.98C25.2059 29.98 24.3666 30.1992 23.7529 30.8129C23.1392 31.4266 22.92 32.2659 22.92 33.14H24.92C24.92 32.5741 25.0608 32.3334 25.1671 32.2271C25.2734 32.1208 25.5141 31.98 26.08 31.98V29.98ZM22.92 33.14V44.66H24.92V33.14H22.92ZM22.92 44.66C22.92 45.5341 23.1392 46.3734 23.7529 46.9871C24.3666 47.6008 25.2059 47.82 26.08 47.82V45.82C25.5141 45.82 25.2734 45.6792 25.1671 45.5729C25.0608 45.4666 24.92 45.2259 24.92 44.66H22.92ZM26.08 47.82H32.2V45.82H26.08V47.82ZM32.2 47.82C33.0741 47.82 33.9134 47.6008 34.5271 46.9871C35.1408 46.3734 35.36 45.5341 35.36 44.66H33.36C33.36 45.2259 33.2192 45.4666 33.1129 45.5729C33.0066 45.6792 32.7659 45.82 32.2 45.82V47.82ZM35.36 44.66V33.14H33.36V44.66H35.36ZM39.84 44.66C39.84 47.0563 39.2886 48.5771 38.4049 49.4609L39.8191 50.8751C41.2394 49.4549 41.84 47.3037 41.84 44.66H39.84ZM38.4049 49.4609C37.5484 50.3174 36.0435 50.86 33.64 50.86V52.86C36.2765 52.86 38.4196 52.2746 39.8191 50.8751L38.4049 49.4609ZM33.64 50.86H24.64V52.86H33.64V50.86ZM24.64 50.86C22.2389 50.86 20.7149 50.3184 19.8316 49.4535L18.4324 50.8825C19.8531 52.2736 22.0011 52.86 24.64 52.86V50.86ZM19.8465 49.4684C18.9816 48.5851 18.44 47.0611 18.44 44.66H16.44C16.44 47.2989 17.0264 49.4469 18.4175 50.8676L19.8465 49.4684ZM18.44 44.66V33.14H16.44V44.66H18.44ZM18.44 33.14C18.44 30.7365 18.9826 29.2316 19.8391 28.3751L18.4249 26.9609C17.0254 28.3604 16.44 30.5035 16.44 33.14H18.44ZM19.8391 28.3751C20.7229 27.4914 22.2437 26.94 24.64 26.94V24.94C21.9963 24.94 19.8451 25.5406 18.4249 26.9609L19.8391 28.3751ZM24.64 26.94H33.64V24.94H24.64V26.94ZM33.64 26.94C36.0387 26.94 37.5404 27.4923 38.3975 28.3676L39.8265 26.9684C38.4276 25.5397 36.2813 24.94 33.64 24.94V26.94ZM38.4124 28.3825C39.2877 29.2396 39.84 30.7413 39.84 33.14H41.84C41.84 30.4987 41.2403 28.3524 39.8116 26.9535L38.4124 28.3825ZM39.84 33.14V44.66H41.84V33.14H39.84ZM53.0969 44.3L53.9731 43.8181L53.6881 43.3H53.0969V44.3ZM50.3969 44.3V43.3H49.3969V44.3H50.3969ZM50.3969 51.5V52.5H51.3969V51.5H50.3969ZM44.0969 51.5H43.0969V52.5H44.0969V51.5ZM44.0969 32.42V31.42H43.0969V32.42H44.0969ZM50.3969 32.42H51.3969V31.42H50.3969V32.42ZM50.3969 39.44H49.3969V40.44H50.3969V39.44ZM53.2769 39.44V40.44H53.8949L54.1713 39.8872L53.2769 39.44ZM55.2569 35.48L56.1513 35.9272L56.157 35.9159L56.1623 35.9044L55.2569 35.48ZM58.6409 32.348L58.3123 31.4035L58.3027 31.4069L58.6409 32.348ZM62.4569 32.24L62.653 31.2594L62.6428 31.2574L62.6327 31.2556L62.4569 32.24ZM63.3569 32.42H64.3569V31.6002L63.553 31.4394L63.3569 32.42ZM63.3569 37.28V38.28H64.3569V37.28H63.3569ZM60.2969 38.36L59.4145 37.8894L59.4083 37.901L59.4024 37.9128L60.2969 38.36ZM58.4969 41.96L57.6024 41.5128L57.3643 41.9891L57.6266 42.4526L58.4969 41.96ZM63.8969 51.5V52.5H65.612L64.7671 51.0074L63.8969 51.5ZM57.0569 51.5L56.1807 51.9819L56.4656 52.5H57.0569V51.5ZM53.0969 43.3H50.3969V45.3H53.0969V43.3ZM49.3969 44.3V51.5H51.3969V44.3H49.3969ZM50.3969 50.5H44.0969V52.5H50.3969V50.5ZM45.0969 51.5V32.42H43.0969V51.5H45.0969ZM44.0969 33.42H50.3969V31.42H44.0969V33.42ZM49.3969 32.42V39.44H51.3969V32.42H49.3969ZM50.3969 40.44H53.2769V38.44H50.3969V40.44ZM54.1713 39.8872L56.1513 35.9272L54.3624 35.0328L52.3824 38.9928L54.1713 39.8872ZM56.1623 35.9044C56.7744 34.5986 57.7041 33.7473 58.9791 33.2891L58.3027 31.4069C56.5056 32.0527 55.1793 33.2894 54.3514 35.0556L56.1623 35.9044ZM58.9694 33.2925C59.4323 33.1315 59.849 33.06 60.2249 33.06V31.06C59.5928 31.06 58.9535 31.1805 58.3124 31.4035L58.9694 33.2925ZM60.2249 33.06C60.993 33.06 61.677 33.1166 62.2811 33.2244L62.6327 31.2556C61.8927 31.1234 61.0888 31.06 60.2249 31.06V33.06ZM62.2608 33.2206L63.1608 33.4006L63.553 31.4394L62.653 31.2594L62.2608 33.2206ZM62.3569 32.42V37.28H64.3569V32.42H62.3569ZM63.3569 36.28H62.0969V38.28H63.3569V36.28ZM62.0969 36.28C61.5382 36.28 61 36.4047 60.5204 36.6925C60.0407 36.9803 59.6775 37.3964 59.4145 37.8894L61.1792 38.8306C61.3003 38.6036 61.429 38.4797 61.5494 38.4075C61.6697 38.3353 61.8396 38.28 62.0969 38.28V36.28ZM59.4024 37.9128L57.6024 41.5128L59.3913 42.4072L61.1913 38.8072L59.4024 37.9128ZM57.6266 42.4526L63.0266 51.9926L64.7671 51.0074L59.3671 41.4674L57.6266 42.4526ZM63.8969 50.5H57.0569V52.5H63.8969V50.5ZM57.9331 51.0181L53.9731 43.8181L52.2207 44.7819L56.1807 51.9819L57.9331 51.0181ZM109.589 51.5V52.5H110.589V51.5H109.589ZM103.109 51.5H102.109V52.5H103.109V51.5ZM103.109 41.24H104.109V40.24H103.109V41.24ZM94.1088 41.24V40.24H93.1088V41.24H94.1088ZM94.1088 51.5V52.5H95.1088V51.5H94.1088ZM87.6288 51.5H86.6288V52.5H87.6288V51.5ZM87.6288 26.3V25.3H86.6288V26.3H87.6288ZM94.1088 26.3H95.1088V25.3H94.1088V26.3ZM94.1088 36.2H93.1088V37.2H94.1088V36.2ZM103.109 36.2V37.2H104.109V36.2H103.109ZM103.109 26.3V25.3H102.109V26.3H103.109ZM109.589 26.3H110.589V25.3H109.589V26.3ZM109.589 50.5H103.109V52.5H109.589V50.5ZM104.109 51.5V41.24H102.109V51.5H104.109ZM103.109 40.24H94.1088V42.24H103.109V40.24ZM93.1088 41.24V51.5H95.1088V41.24H93.1088ZM94.1088 50.5H87.6288V52.5H94.1088V50.5ZM88.6288 51.5V26.3H86.6288V51.5H88.6288ZM87.6288 27.3H94.1088V25.3H87.6288V27.3ZM93.1088 26.3V36.2H95.1088V26.3H93.1088ZM94.1088 37.2H103.109V35.2H94.1088V37.2ZM104.109 36.2V26.3L102.109 26.3V36.2H104.109ZM103.109 27.3H109.589V25.3L103.109 25.3V27.3ZM108.589 26.3V51.5H110.589V26.3H108.589ZM125.446 46.1L125.732 47.0582L126.446 46.8451V46.1H125.446ZM125.446 43.94H126.446V42.94H125.446V43.94ZM119.326 44.3L120.033 45.0071L120.033 45.0071L119.326 44.3ZM119.326 46.46L118.619 47.1671L118.619 47.1671L119.326 46.46ZM114.466 32.78L114.357 31.7859L113.466 31.8833V32.78H114.466ZM130.27 33.536L129.563 34.2431L129.563 34.2431L130.27 33.536ZM131.746 51.5V52.5H132.746V51.5H131.746ZM126.166 51.5L125.185 51.6961L125.346 52.5H126.166V51.5ZM125.806 49.7L126.786 49.5039L126.495 48.0474L125.255 48.8652L125.806 49.7ZM122.314 51.356L122.588 52.3176L122.601 52.3138L122.314 51.356ZM114.142 50.384L113.435 51.0911L113.435 51.0911L114.142 50.384ZM114.142 40.916L114.849 41.6231L114.849 41.6231L114.142 40.916ZM125.446 39.44V40.44H126.446V39.44H125.446ZM125.086 37.1L124.379 37.8071L124.379 37.8071L125.086 37.1ZM119.002 36.956L118.926 35.9589L118.925 35.9589L119.002 36.956ZM114.466 37.28H113.466V38.3445L114.528 38.2781L114.466 37.28ZM121.126 47.82C122.52 47.82 124.059 47.5576 125.732 47.0582L125.16 45.1418C123.617 45.6024 122.276 45.82 121.126 45.82V47.82ZM126.446 46.1V43.94H124.446V46.1H126.446ZM125.446 42.94H120.226V44.94H125.446V42.94ZM120.226 42.94C119.618 42.94 119.058 43.1531 118.619 43.5929L120.033 45.0071C120.073 44.9669 120.113 44.94 120.226 44.94V42.94ZM118.619 43.5929C118.179 44.0327 117.966 44.5926 117.966 45.2H119.966C119.966 45.0874 119.993 45.0473 120.033 45.0071L118.619 43.5929ZM117.966 45.2V45.56H119.966V45.2H117.966ZM117.966 45.56C117.966 46.1674 118.179 46.7273 118.619 47.1671L120.033 45.7529C119.993 45.7127 119.966 45.6726 119.966 45.56H117.966ZM118.619 47.1671C119.058 47.6069 119.618 47.82 120.226 47.82V45.82C120.113 45.82 120.073 45.7931 120.033 45.7529L118.619 47.1671ZM120.226 47.82H121.126V45.82H120.226V47.82ZM114.574 33.7741C118.939 33.2971 122.862 33.06 126.346 33.06V31.06C122.774 31.06 118.777 31.3029 114.357 31.7859L114.574 33.7741ZM126.346 33.06C127.762 33.06 128.798 33.4789 129.563 34.2431L130.977 32.8289C129.773 31.6251 128.193 31.06 126.346 31.06V33.06ZM129.563 34.2431C130.327 35.0073 130.746 36.0438 130.746 37.46H132.746C132.746 35.6122 132.181 34.0327 130.977 32.8289L129.563 34.2431ZM130.746 37.46V51.5H132.746V37.46H130.746ZM131.746 50.5H126.166V52.5H131.746V50.5ZM127.146 51.3039L126.786 49.5039L124.825 49.8961L125.185 51.6961L127.146 51.3039ZM125.255 48.8652C124.202 49.5598 123.126 50.0683 122.026 50.3982L122.601 52.3138C123.901 51.9237 125.153 51.3282 126.356 50.5348L125.255 48.8652ZM122.039 50.3945C120.912 50.7163 120.015 50.86 119.326 50.86V52.86C120.268 52.86 121.363 52.6677 122.588 52.3175L122.039 50.3945ZM119.326 50.86H118.066V52.86H119.326V50.86ZM118.066 50.86C116.649 50.86 115.613 50.4411 114.849 49.6769L113.435 51.0911C114.638 52.2949 116.218 52.86 118.066 52.86V50.86ZM114.849 49.6769C114.085 48.9127 113.666 47.8762 113.666 46.46L111.666 46.46C111.666 48.3078 112.231 49.8873 113.435 51.0911L114.849 49.6769ZM113.666 46.46V44.84L111.666 44.84V46.46L113.666 46.46ZM113.666 44.84C113.666 43.4238 114.085 42.3873 114.849 41.6231L113.435 40.2089C112.231 41.4127 111.666 42.9922 111.666 44.84L113.666 44.84ZM114.849 41.6231C115.613 40.8589 116.649 40.44 118.066 40.44V38.44C116.218 38.44 114.638 39.0051 113.435 40.2089L114.849 41.6231ZM118.066 40.44H125.446V38.44H118.066V40.44ZM126.446 39.44V38H124.446V39.44H126.446ZM126.446 38C126.446 37.3926 126.233 36.8327 125.793 36.3929L124.379 37.8071C124.419 37.8473 124.446 37.8874 124.446 38H126.446ZM125.793 36.3929C125.353 35.9531 124.793 35.74 124.186 35.74V37.74C124.298 37.74 124.338 37.7669 124.379 37.8071L125.793 36.3929ZM124.186 35.74C122.596 35.74 120.842 35.8134 118.926 35.9589L119.077 37.9531C120.953 37.8106 122.656 37.74 124.186 37.74V35.74ZM118.925 35.9589C117.055 36.1028 115.548 36.2104 114.403 36.2819L114.528 38.2781C115.687 38.2056 117.204 38.0972 119.078 37.9531L118.925 35.9589ZM115.466 37.28V32.78H113.466V37.28H115.466Z" fill="black"/>
</svg>
