<svg width="243" height="130" viewBox="0 0 243 130" fill="none" xmlns="http://www.w3.org/2000/svg">
<rect x="2" y="2" width="56" height="56" fill="white" stroke="white" stroke-width="4"/>
<rect x="2" y="72" width="56" height="56" fill="white" stroke="white" stroke-width="4"/>
<rect x="72" y="2" width="56" height="56" fill="white" stroke="white" stroke-width="4"/>
<mask id="path-4-inside-1_201_2" fill="white">
<path fill-rule="evenodd" clip-rule="evenodd" d="M243 70H70V130H243V70ZM102.75 86.65C104.95 86.65 106.05 87.75 106.05 89.95V107.55C106.05 109.75 104.95 110.85 102.75 110.85H93.4C91.2 110.85 90.1 109.75 90.1 107.55V89.95C90.1 87.75 91.2 86.65 93.4 86.65H102.75ZM113.31 115.965C115.07 114.205 115.95 111.4 115.95 107.55V89.95C115.95 86.1 115.07 83.3133 113.31 81.59C111.587 79.83 108.8 78.95 104.95 78.95H91.2C87.35 78.95 84.545 79.83 82.785 81.59C81.0616 83.3133 80.2 86.1 80.2 89.95V107.55C80.2 111.4 81.0616 114.205 82.785 115.965C84.545 117.688 87.35 118.55 91.2 118.55H104.95C108.8 118.55 111.587 117.688 113.31 115.965ZM121.476 118H131.376V102.325H136.326L144.851 118H155.301L144.576 98.475L155.356 79.5H144.906L136.326 94.625H131.376V79.5H121.476V118ZM182.294 118H192.194V79.5H182.294V94.625H168.544V79.5H158.644V118H168.544V102.325H182.294V118ZM194.969 118H205.695L208.169 111.125H221.919L224.395 118H235.12L220.544 79.5H209.544L194.969 118ZM215.044 91.05L219.445 103.975H210.645L215.044 91.05Z"/>
</mask>
<path fill-rule="evenodd" clip-rule="evenodd" d="M243 70H70V130H243V70ZM102.75 86.65C104.95 86.65 106.05 87.75 106.05 89.95V107.55C106.05 109.75 104.95 110.85 102.75 110.85H93.4C91.2 110.85 90.1 109.75 90.1 107.55V89.95C90.1 87.75 91.2 86.65 93.4 86.65H102.75ZM113.31 115.965C115.07 114.205 115.95 111.4 115.95 107.55V89.95C115.95 86.1 115.07 83.3133 113.31 81.59C111.587 79.83 108.8 78.95 104.95 78.95H91.2C87.35 78.95 84.545 79.83 82.785 81.59C81.0616 83.3133 80.2 86.1 80.2 89.95V107.55C80.2 111.4 81.0616 114.205 82.785 115.965C84.545 117.688 87.35 118.55 91.2 118.55H104.95C108.8 118.55 111.587 117.688 113.31 115.965ZM121.476 118H131.376V102.325H136.326L144.851 118H155.301L144.576 98.475L155.356 79.5H144.906L136.326 94.625H131.376V79.5H121.476V118ZM182.294 118H192.194V79.5H182.294V94.625H168.544V79.5H158.644V118H168.544V102.325H182.294V118ZM194.969 118H205.695L208.169 111.125H221.919L224.395 118H235.12L220.544 79.5H209.544L194.969 118ZM215.044 91.05L219.445 103.975H210.645L215.044 91.05Z" fill="white"/>
<path d="M70 70V66H66V70H70ZM243 70H247V66H243V70ZM70 130H66V134H70V130ZM243 130V134H247V130H243ZM113.31 115.965L110.482 113.137L110.482 113.137L113.31 115.965ZM113.31 81.59L110.452 84.3885L110.481 84.4186L110.511 84.448L113.31 81.59ZM82.785 81.59L79.9565 78.7616L79.9565 78.7616L82.785 81.59ZM82.785 115.965L79.9269 118.764L79.9564 118.794L79.9865 118.823L82.785 115.965ZM131.376 118V122H135.376V118H131.376ZM121.476 118H117.476V122H121.476V118ZM131.376 102.325V98.325H127.376V102.325H131.376ZM136.326 102.325L139.84 100.414L138.704 98.325H136.326V102.325ZM144.851 118L141.337 119.911L142.473 122H144.851V118ZM155.301 118V122H162.062L158.807 116.074L155.301 118ZM144.576 98.475L141.098 96.4991L139.994 98.4421L141.07 100.401L144.576 98.475ZM155.356 79.5L158.834 81.4759L162.229 75.5H155.356V79.5ZM144.906 79.5V75.5H142.576L141.427 77.5264L144.906 79.5ZM136.326 94.625V98.625H138.655L139.805 96.5986L136.326 94.625ZM131.376 94.625H127.376V98.625H131.376V94.625ZM131.376 79.5H135.376V75.5H131.376V79.5ZM121.476 79.5V75.5H117.476V79.5H121.476ZM192.194 118V122H196.194V118H192.194ZM182.294 118H178.294V122H182.294V118ZM192.194 79.5H196.194V75.5H192.194V79.5ZM182.294 79.5V75.5H178.294V79.5H182.294ZM182.294 94.625V98.625H186.294V94.625H182.294ZM168.544 94.625H164.544V98.625H168.544V94.625ZM168.544 79.5H172.544V75.5H168.544V79.5ZM158.644 79.5V75.5H154.644V79.5H158.644ZM158.644 118H154.644V122H158.644V118ZM168.544 118V122H172.544V118H168.544ZM168.544 102.325V98.325H164.544V102.325H168.544ZM182.294 102.325H186.294V98.325H182.294V102.325ZM205.695 118V122H208.506L209.458 119.355L205.695 118ZM194.969 118L191.229 116.584L189.178 122H194.969V118ZM208.169 111.125V107.125H205.358L204.406 109.77L208.169 111.125ZM221.919 111.125L225.683 109.77L224.731 107.125H221.919V111.125ZM224.395 118L220.631 119.355L221.583 122H224.395V118ZM235.12 118V122H240.911L238.86 116.584L235.12 118ZM220.544 79.5L224.285 78.0838L223.307 75.5H220.544V79.5ZM209.544 79.5V75.5H206.782L205.804 78.0838L209.544 79.5ZM219.445 103.975V107.975H225.032L223.231 102.686L219.445 103.975ZM215.044 91.05L218.831 89.7609L215.044 78.6378L211.258 89.7609L215.044 91.05ZM210.645 103.975L206.858 102.686L205.057 107.975H210.645V103.975ZM70 74H243V66H70V74ZM74 130V70H66V130H74ZM243 126H70V134H243V126ZM239 70V130H247V70H239ZM110.05 89.95C110.05 88.2334 109.618 86.2113 108.053 84.6466C106.489 83.0819 104.467 82.65 102.75 82.65V90.65C102.979 90.65 103.016 90.68 102.929 90.651C102.822 90.6155 102.61 90.5171 102.397 90.3034C102.183 90.0898 102.084 89.8775 102.049 89.7712C102.02 89.6842 102.05 89.7214 102.05 89.95H110.05ZM110.05 107.55V89.95H102.05V107.55H110.05ZM102.75 114.85C104.467 114.85 106.489 114.418 108.053 112.853C109.618 111.289 110.05 109.267 110.05 107.55H102.05C102.05 107.779 102.02 107.816 102.049 107.729C102.084 107.623 102.183 107.41 102.397 107.197C102.61 106.983 102.822 106.884 102.929 106.849C103.016 106.82 102.979 106.85 102.75 106.85V114.85ZM93.4 114.85H102.75V106.85H93.4V114.85ZM86.1 107.55C86.1 109.267 86.5318 111.289 88.0965 112.853C89.6613 114.418 91.6834 114.85 93.4 114.85V106.85C93.1714 106.85 93.1342 106.82 93.2211 106.849C93.3275 106.884 93.5397 106.983 93.7534 107.197C93.967 107.41 94.0655 107.623 94.101 107.729C94.1299 107.816 94.1 107.779 94.1 107.55H86.1ZM86.1 89.95V107.55H94.1V89.95H86.1ZM93.4 82.65C91.6834 82.65 89.6613 83.0819 88.0965 84.6466C86.5318 86.2113 86.1 88.2334 86.1 89.95H94.1C94.1 89.7214 94.1299 89.6842 94.101 89.7712C94.0655 89.8775 93.967 90.0898 93.7534 90.3034C93.5397 90.5171 93.3275 90.6155 93.2211 90.651C93.1342 90.68 93.1714 90.65 93.4 90.65V82.65ZM102.75 82.65H93.4V90.65H102.75V82.65ZM111.95 107.55C111.95 110.905 111.169 112.45 110.482 113.137L116.138 118.793C118.971 115.96 119.95 111.895 119.95 107.55H111.95ZM111.95 89.95V107.55H119.95V89.95H111.95ZM110.511 84.448C111.165 85.0876 111.95 86.5852 111.95 89.95H119.95C119.95 85.6148 118.975 81.5391 116.108 78.732L110.511 84.448ZM104.95 82.95C108.315 82.95 109.812 83.7354 110.452 84.3885L116.168 78.7915C113.361 75.9246 109.285 74.95 104.95 74.95V82.95ZM91.2 82.95H104.95V74.95H91.2V82.95ZM85.6134 84.4184C86.3004 83.7314 87.8447 82.95 91.2 82.95V74.95C86.8553 74.95 82.7895 75.9286 79.9565 78.7616L85.6134 84.4184ZM84.2 89.95C84.2 86.5659 84.9761 85.0557 85.6134 84.4184L79.9565 78.7616C77.1472 81.571 76.2 85.6341 76.2 89.95H84.2ZM84.2 107.55V89.95H76.2V107.55H84.2ZM85.643 113.166C84.972 112.481 84.2 110.924 84.2 107.55H76.2C76.2 111.876 77.1512 115.929 79.9269 118.764L85.643 113.166ZM91.2 114.55C87.8256 114.55 86.2687 113.778 85.5835 113.107L79.9865 118.823C82.8212 121.599 86.8743 122.55 91.2 122.55V114.55ZM104.95 114.55H91.2V122.55H104.95V114.55ZM110.482 113.137C109.844 113.774 108.334 114.55 104.95 114.55V122.55C109.266 122.55 113.329 121.603 116.138 118.793L110.482 113.137ZM131.376 114H121.476V122H131.376V114ZM127.376 102.325V118H135.376V102.325H127.376ZM136.326 98.325H131.376V106.325H136.326V98.325ZM148.365 116.089L139.84 100.414L132.812 104.236L141.337 119.911L148.365 116.089ZM155.301 114H144.851V122H155.301V114ZM141.07 100.401L151.795 119.926L158.807 116.074L148.082 96.5492L141.07 100.401ZM151.878 77.5241L141.098 96.4991L148.054 100.451L158.834 81.4759L151.878 77.5241ZM144.906 83.5H155.356V75.5H144.906V83.5ZM139.805 96.5986L148.385 81.4736L141.427 77.5264L132.847 92.6514L139.805 96.5986ZM131.376 98.625H136.326V90.625H131.376V98.625ZM127.376 79.5V94.625H135.376V79.5H127.376ZM121.476 83.5H131.376V75.5H121.476V83.5ZM125.476 118V79.5H117.476V118H125.476ZM192.194 114H182.294V122H192.194V114ZM188.194 79.5V118H196.194V79.5H188.194ZM182.294 83.5H192.194V75.5H182.294V83.5ZM186.294 94.625V79.5H178.294V94.625H186.294ZM168.544 98.625H182.294V90.625H168.544V98.625ZM164.544 79.5V94.625H172.544V79.5H164.544ZM158.644 83.5H168.544V75.5H158.644V83.5ZM162.644 118V79.5H154.644V118H162.644ZM168.544 114H158.644V122H168.544V114ZM164.544 102.325V118H172.544V102.325H164.544ZM182.294 98.325H168.544V106.325H182.294V98.325ZM186.294 118V102.325H178.294V118H186.294ZM205.695 114H194.969V122H205.695V114ZM204.406 109.77L201.931 116.645L209.458 119.355L211.933 112.48L204.406 109.77ZM221.919 107.125H208.169V115.125H221.919V107.125ZM228.158 116.645L225.683 109.77L218.156 112.48L220.631 119.355L228.158 116.645ZM235.12 114H224.395V122H235.12V114ZM216.804 80.9162L231.379 119.416L238.86 116.584L224.285 78.0838L216.804 80.9162ZM209.544 83.5H220.544V75.5H209.544V83.5ZM198.71 119.416L213.285 80.9162L205.804 78.0838L191.229 116.584L198.71 119.416ZM223.231 102.686L218.831 89.7609L211.258 92.3391L215.658 105.264L223.231 102.686ZM210.645 107.975H219.445V99.975H210.645V107.975ZM211.258 89.7609L206.858 102.686L214.431 105.264L218.831 92.3391L211.258 89.7609Z" fill="white" mask="url(#path-4-inside-1_201_2)"/>
</svg>
