<svg width="246" height="150" viewBox="0 0 246 150" fill="none" xmlns="http://www.w3.org/2000/svg">
<rect x="3.05176e-05" y="3.05176e-05" width="150" height="150" fill="#363636"/>
<rect x="12" y="12" width="56" height="56" fill="white" stroke="#1D98DB" stroke-width="4"/>
<rect x="12" y="82" width="56" height="56" fill="white" stroke="#1D98DB" stroke-width="4"/>
<rect x="82" y="82" width="161.551" height="56" fill="white" stroke="#1D98DB" stroke-width="4"/>
<rect x="82" y="12" width="56" height="56" fill="white" stroke="#1D98DB" stroke-width="4"/>
<path d="M117.325 99.95C117.325 97.75 116.225 96.65 114.025 96.65H104.675C102.475 96.65 101.375 97.75 101.375 99.95V117.55C101.375 119.75 102.475 120.85 104.675 120.85H114.025C116.225 120.85 117.325 119.75 117.325 117.55V99.95ZM127.225 117.55C127.225 121.4 126.345 124.205 124.585 125.965C122.862 127.688 120.075 128.55 116.225 128.55H102.475C98.6253 128.55 95.8203 127.688 94.0603 125.965C92.3369 124.205 91.4753 121.4 91.4753 117.55V99.95C91.4753 96.1 92.3369 93.3133 94.0603 91.59C95.8203 89.83 98.6253 88.95 102.475 88.95H116.225C120.075 88.95 122.862 89.83 124.585 91.59C126.345 93.3133 127.225 96.1 127.225 99.95V117.55ZM145.951 117H141.826V128H132.201V98.85H141.826V109.575H146.226L149.251 103.525C150.351 101.178 152.074 99.5833 154.421 98.74C155.264 98.4467 156.071 98.3 156.841 98.3C158.088 98.3 159.224 98.3917 160.251 98.575L161.626 98.85V106.275H159.701C158.454 106.275 157.538 106.825 156.951 107.925L154.201 113.425L162.451 128H152.001L145.951 117ZM199.28 128H189.38V112.325H175.63V128H165.73V89.5H175.63V104.625H189.38V89.5H199.28V128ZM216.905 120.85C218.849 120.85 221.049 120.483 223.505 119.75V116.45H215.53C214.98 116.45 214.522 116.633 214.155 117C213.789 117.367 213.605 117.825 213.605 118.375V118.925C213.605 119.475 213.789 119.933 214.155 120.3C214.522 120.667 214.98 120.85 215.53 120.85H216.905ZM206.73 99.4C213.44 98.6667 219.49 98.3 224.88 98.3C227.374 98.3 229.372 99.0517 230.875 100.555C232.379 102.058 233.13 104.057 233.13 106.55V128H224.605L224.055 125.25C222.332 126.387 220.554 127.23 218.72 127.78C216.924 128.293 215.402 128.55 214.155 128.55H212.23C209.737 128.55 207.739 127.798 206.235 126.295C204.732 124.792 203.98 122.793 203.98 120.3V117.825C203.98 115.332 204.732 113.333 206.235 111.83C207.739 110.327 209.737 109.575 212.23 109.575H223.505V107.375C223.505 106.825 223.322 106.367 222.955 106C222.589 105.633 222.13 105.45 221.58 105.45C219.197 105.45 216.557 105.56 213.66 105.78C210.8 106 208.49 106.165 206.73 106.275V99.4Z" fill="#1D98DB"/>
<path d="M124.585 125.965L123.878 125.258L123.878 125.258L124.585 125.965ZM94.0603 125.965L93.3458 126.665L93.3531 126.672L93.3606 126.68L94.0603 125.965ZM94.0603 91.59L93.3532 90.8829L93.3532 90.8829L94.0603 91.59ZM124.585 91.59L123.871 92.2896L123.878 92.2971L123.886 92.3045L124.585 91.59ZM118.325 99.95C118.325 98.6959 118.011 97.5716 117.207 96.7679C116.404 95.9642 115.279 95.65 114.025 95.65V97.65C114.971 97.65 115.497 97.8858 115.793 98.1821C116.089 98.4784 116.325 99.0041 116.325 99.95H118.325ZM114.025 95.65H104.675V97.65H114.025V95.65ZM104.675 95.65C103.421 95.65 102.297 95.9642 101.493 96.7679C100.689 97.5716 100.375 98.6959 100.375 99.95H102.375C102.375 99.0041 102.611 98.4784 102.907 98.1821C103.204 97.8858 103.729 97.65 104.675 97.65V95.65ZM100.375 99.95V117.55H102.375V99.95H100.375ZM100.375 117.55C100.375 118.804 100.689 119.928 101.493 120.732C102.297 121.536 103.421 121.85 104.675 121.85V119.85C103.729 119.85 103.204 119.614 102.907 119.318C102.611 119.022 102.375 118.496 102.375 117.55H100.375ZM104.675 121.85H114.025V119.85H104.675V121.85ZM114.025 121.85C115.279 121.85 116.404 121.536 117.207 120.732C118.011 119.928 118.325 118.804 118.325 117.55H116.325C116.325 118.496 116.089 119.022 115.793 119.318C115.497 119.614 114.971 119.85 114.025 119.85V121.85ZM118.325 117.55V99.95H116.325V117.55H118.325ZM126.225 117.55C126.225 121.276 125.37 123.766 123.878 125.258L125.292 126.672C127.321 124.644 128.225 121.524 128.225 117.55H126.225ZM123.878 125.258C122.426 126.71 119.959 127.55 116.225 127.55V129.55C120.192 129.55 123.298 128.667 125.292 126.672L123.878 125.258ZM116.225 127.55H102.475V129.55H116.225V127.55ZM102.475 127.55C98.7442 127.55 96.2512 126.711 94.7599 125.25L93.3606 126.68C95.3893 128.666 98.5064 129.55 102.475 129.55V127.55ZM94.7748 125.265C93.3145 123.774 92.4753 121.281 92.4753 117.55H90.4753C90.4753 121.519 91.3593 124.636 93.3458 126.665L94.7748 125.265ZM92.4753 117.55V99.95H90.4753V117.55H92.4753ZM92.4753 99.95C92.4753 96.2165 93.3156 93.7489 94.7674 92.2971L93.3532 90.8829C91.3583 92.8777 90.4753 95.9835 90.4753 99.95H92.4753ZM94.7674 92.2971C96.2591 90.8054 98.7489 89.95 102.475 89.95V87.95C98.5016 87.95 95.3814 88.8546 93.3532 90.8829L94.7674 92.2971ZM102.475 89.95H116.225V87.95H102.475V89.95ZM116.225 89.95C119.954 89.95 122.418 90.8063 123.871 92.2896L125.3 90.8904C123.305 88.8537 120.197 87.95 116.225 87.95V89.95ZM123.886 92.3045C125.369 93.7569 126.225 96.2213 126.225 99.95H128.225C128.225 95.9787 127.322 92.8698 125.285 90.8755L123.886 92.3045ZM126.225 99.95V117.55H128.225V99.95H126.225ZM145.951 117L146.827 116.518L146.542 116H145.951V117ZM141.826 117V116H140.826V117H141.826ZM141.826 128V129H142.826V128H141.826ZM132.201 128H131.201V129H132.201V128ZM132.201 98.85V97.85H131.201V98.85H132.201ZM141.826 98.85H142.826V97.85H141.826V98.85ZM141.826 109.575H140.826V110.575H141.826V109.575ZM146.226 109.575V110.575H146.844L147.12 110.022L146.226 109.575ZM149.251 103.525L150.145 103.972L150.151 103.961L150.157 103.949L149.251 103.525ZM154.421 98.74L154.093 97.7955L154.083 97.7989L154.421 98.74ZM160.251 98.575L160.447 97.5944L160.437 97.5924L160.427 97.5906L160.251 98.575ZM161.626 98.85H162.626V98.0302L161.822 97.8694L161.626 98.85ZM161.626 106.275V107.275H162.626V106.275H161.626ZM156.951 107.925L156.069 107.454L156.063 107.466L156.057 107.478L156.951 107.925ZM154.201 113.425L153.307 112.978L153.068 113.454L153.331 113.918L154.201 113.425ZM162.451 128V129H164.166L163.321 127.507L162.451 128ZM152.001 128L151.125 128.482L151.41 129H152.001V128ZM145.951 116H141.826V118H145.951V116ZM140.826 117V128H142.826V117H140.826ZM141.826 127H132.201V129H141.826V127ZM133.201 128V98.85H131.201V128H133.201ZM132.201 99.85H141.826V97.85H132.201V99.85ZM140.826 98.85V109.575H142.826V98.85H140.826ZM141.826 110.575H146.226V108.575H141.826V110.575ZM147.12 110.022L150.145 103.972L148.357 103.078L145.332 109.128L147.12 110.022ZM150.157 103.949C151.149 101.833 152.674 100.431 154.759 99.6811L154.083 97.7989C151.475 98.7361 149.554 100.524 148.346 103.101L150.157 103.949ZM154.75 99.6845C155.504 99.4222 156.199 99.3 156.841 99.3V97.3C155.943 97.3 155.025 97.4712 154.093 97.7955L154.75 99.6845ZM156.841 99.3C158.04 99.3 159.117 99.3882 160.075 99.5594L160.427 97.5906C159.332 97.3951 158.136 97.3 156.841 97.3V99.3ZM160.055 99.5556L161.43 99.8306L161.822 97.8694L160.447 97.5944L160.055 99.5556ZM160.626 98.85V106.275H162.626V98.85H160.626ZM161.626 105.275H159.701V107.275H161.626V105.275ZM159.701 105.275C158.927 105.275 158.202 105.447 157.564 105.83C156.926 106.213 156.433 106.771 156.069 107.454L157.833 108.396C158.056 107.979 158.314 107.712 158.593 107.545C158.872 107.378 159.228 107.275 159.701 107.275V105.275ZM156.057 107.478L153.307 112.978L155.095 113.872L157.845 108.372L156.057 107.478ZM153.331 113.918L161.581 128.493L163.321 127.507L155.071 112.932L153.331 113.918ZM162.451 127H152.001V129H162.451V127ZM152.877 127.518L146.827 116.518L145.075 117.482L151.125 128.482L152.877 127.518ZM199.28 128V129H200.28V128H199.28ZM189.38 128H188.38V129H189.38V128ZM189.38 112.325H190.38V111.325H189.38V112.325ZM175.63 112.325V111.325H174.63V112.325H175.63ZM175.63 128V129H176.63V128H175.63ZM165.73 128H164.73V129H165.73V128ZM165.73 89.5V88.5H164.73V89.5H165.73ZM175.63 89.5H176.63V88.5H175.63V89.5ZM175.63 104.625H174.63V105.625H175.63V104.625ZM189.38 104.625V105.625H190.38V104.625H189.38ZM189.38 89.5V88.5H188.38V89.5H189.38ZM199.28 89.5H200.28V88.5H199.28V89.5ZM199.28 127H189.38V129H199.28V127ZM190.38 128V112.325H188.38V128H190.38ZM189.38 111.325H175.63V113.325H189.38V111.325ZM174.63 112.325V128H176.63V112.325H174.63ZM175.63 127H165.73V129H175.63V127ZM166.73 128V89.5H164.73V128H166.73ZM165.73 90.5H175.63V88.5H165.73V90.5ZM174.63 89.5V104.625H176.63V89.5H174.63ZM175.63 105.625H189.38V103.625H175.63V105.625ZM190.38 104.625V89.5H188.38V104.625H190.38ZM189.38 90.5H199.28V88.5H189.38V90.5ZM198.28 89.5V128H200.28V89.5H198.28ZM223.505 119.75L223.791 120.708L224.505 120.495V119.75H223.505ZM223.505 116.45H224.505V115.45H223.505V116.45ZM214.155 117L214.862 117.707L214.862 117.707L214.155 117ZM214.155 120.3L213.448 121.007L213.448 121.007L214.155 120.3ZM206.73 99.4L206.622 98.4059L205.73 98.5033V99.4H206.73ZM230.875 100.555L230.168 101.262L230.168 101.262L230.875 100.555ZM233.13 128V129H234.13V128H233.13ZM224.605 128L223.625 128.196L223.786 129H224.605V128ZM224.055 125.25L225.036 125.054L224.745 123.597L223.505 124.415L224.055 125.25ZM218.72 127.78L218.995 128.742L219.008 128.738L218.72 127.78ZM206.235 126.295L205.528 127.002L205.528 127.002L206.235 126.295ZM206.235 111.83L206.942 112.537L206.942 112.537L206.235 111.83ZM223.505 109.575V110.575H224.505V109.575H223.505ZM222.955 106L222.248 106.707L222.248 106.707L222.955 106ZM213.66 105.78L213.585 104.783L213.584 104.783L213.66 105.78ZM206.73 106.275H205.73V107.339L206.793 107.273L206.73 106.275ZM216.905 121.85C218.971 121.85 221.27 121.461 223.791 120.708L223.219 118.792C220.828 119.506 218.727 119.85 216.905 119.85V121.85ZM224.505 119.75V116.45H222.505V119.75H224.505ZM223.505 115.45H215.53V117.45H223.505V115.45ZM215.53 115.45C214.733 115.45 214.015 115.726 213.448 116.293L214.862 117.707C215.029 117.54 215.228 117.45 215.53 117.45V115.45ZM213.448 116.293C212.882 116.859 212.605 117.578 212.605 118.375H214.605C214.605 118.072 214.696 117.874 214.862 117.707L213.448 116.293ZM212.605 118.375V118.925H214.605V118.375H212.605ZM212.605 118.925C212.605 119.722 212.882 120.441 213.448 121.007L214.862 119.593C214.696 119.426 214.605 119.228 214.605 118.925H212.605ZM213.448 121.007C214.015 121.574 214.733 121.85 215.53 121.85V119.85C215.228 119.85 215.029 119.76 214.862 119.593L213.448 121.007ZM215.53 121.85H216.905V119.85H215.53V121.85ZM206.839 100.394C213.521 99.6638 219.534 99.3 224.88 99.3V97.3C219.446 97.3 213.359 97.6696 206.622 98.4059L206.839 100.394ZM224.88 99.3C227.158 99.3 228.885 99.9786 230.168 101.262L231.582 99.8479C229.859 98.1248 227.59 97.3 224.88 97.3V99.3ZM230.168 101.262C231.452 102.546 232.13 104.272 232.13 106.55H234.13C234.13 103.841 233.306 101.571 231.582 99.8479L230.168 101.262ZM232.13 106.55V128H234.13V106.55H232.13ZM233.13 127H224.605V129H233.13V127ZM225.586 127.804L225.036 125.054L223.075 125.446L223.625 128.196L225.586 127.804ZM223.505 124.415C221.856 125.502 220.166 126.302 218.433 126.822L219.008 128.738C220.941 128.158 222.808 127.271 224.606 126.085L223.505 124.415ZM218.446 126.818C216.699 127.318 215.275 127.55 214.155 127.55V129.55C215.529 129.55 217.149 129.269 218.995 128.742L218.446 126.818ZM214.155 127.55H212.23V129.55H214.155V127.55ZM212.23 127.55C209.953 127.55 208.226 126.871 206.942 125.588L205.528 127.002C207.251 128.725 209.521 129.55 212.23 129.55V127.55ZM206.942 125.588C205.659 124.304 204.98 122.578 204.98 120.3H202.98C202.98 123.009 203.805 125.279 205.528 127.002L206.942 125.588ZM204.98 120.3V117.825H202.98V120.3H204.98ZM204.98 117.825C204.98 115.547 205.659 113.821 206.942 112.537L205.528 111.123C203.805 112.846 202.98 115.116 202.98 117.825H204.98ZM206.942 112.537C208.226 111.254 209.953 110.575 212.23 110.575V108.575C209.521 108.575 207.251 109.4 205.528 111.123L206.942 112.537ZM212.23 110.575H223.505V108.575H212.23V110.575ZM224.505 109.575V107.375H222.505V109.575H224.505ZM224.505 107.375C224.505 106.578 224.229 105.859 223.662 105.293L222.248 106.707C222.415 106.874 222.505 107.072 222.505 107.375H224.505ZM223.662 105.293C223.096 104.726 222.378 104.45 221.58 104.45V106.45C221.883 106.45 222.081 106.54 222.248 106.707L223.662 105.293ZM221.58 104.45C219.167 104.45 216.501 104.561 213.585 104.783L213.736 106.777C216.613 106.559 219.227 106.45 221.58 106.45V104.45ZM213.584 104.783C210.726 105.003 208.421 105.167 206.668 105.277L206.793 107.273C208.56 107.163 210.875 106.997 213.737 106.777L213.584 104.783ZM207.73 106.275V99.4H205.73V106.275H207.73Z" fill="black"/>
</svg>
