<svg width="156" height="220" viewBox="0 0 156 220" fill="none" xmlns="http://www.w3.org/2000/svg">
<rect x="3" width="150" height="150" fill="#363636"/>
<rect x="15" y="12" width="56" height="56" fill="white" stroke="#1D98DB" stroke-width="4"/>
<rect x="15" y="82" width="56" height="56" fill="white" stroke="#1D98DB" stroke-width="4"/>
<rect x="85" y="82" width="56" height="56" fill="white" stroke="#1D98DB" stroke-width="4"/>
<rect x="85" y="12" width="56" height="56" fill="white" stroke="#1D98DB" stroke-width="4"/>
<path d="M30.08 174.42C30.08 172.1 28.92 170.94 26.6 170.94H16.74C14.42 170.94 13.26 172.1 13.26 174.42V192.98C13.26 195.3 14.42 196.46 16.74 196.46H26.6C28.92 196.46 30.08 195.3 30.08 192.98L30.08 174.42ZM40.52 192.98C40.52 197.04 39.592 199.998 37.736 201.854C35.9187 203.671 32.98 204.58 28.92 204.58H14.42C10.36 204.58 7.402 203.671 5.546 201.854C3.72867 199.998 2.82 197.04 2.82 192.98L2.82 174.42C2.82 170.36 3.72867 167.421 5.546 165.604C7.402 163.748 10.36 162.82 14.42 162.82H28.92C32.98 162.82 35.9187 163.748 37.736 165.604C39.592 167.421 40.52 170.36 40.52 174.42V192.98ZM60.2672 192.4H55.9172V204H45.7672V173.26H55.9172V184.57H60.5572L63.7472 178.19C64.9072 175.715 66.7245 174.033 69.1992 173.144C70.0885 172.835 70.9392 172.68 71.7512 172.68C73.0659 172.68 74.2645 172.777 75.3472 172.97L76.7972 173.26V181.09H74.7672C73.4525 181.09 72.4859 181.67 71.8672 182.83L68.9672 188.63L77.6672 204H66.6472L60.2672 192.4ZM116.505 204H106.065V187.47H91.5645V204H81.1245V163.4H91.5645V179.35H106.065V163.4H116.505V204ZM135.092 196.46C137.141 196.46 139.461 196.073 142.052 195.3V191.82H133.642C133.062 191.82 132.578 192.013 132.192 192.4C131.805 192.787 131.612 193.27 131.612 193.85V194.43C131.612 195.01 131.805 195.493 132.192 195.88C132.578 196.267 133.062 196.46 133.642 196.46H135.092ZM124.362 173.84C131.438 173.067 137.818 172.68 143.502 172.68C146.131 172.68 148.238 173.473 149.824 175.058C151.409 176.643 152.202 178.751 152.202 181.38V204H143.212L142.632 201.1C140.814 202.299 138.939 203.188 137.006 203.768C135.111 204.309 133.506 204.58 132.192 204.58H130.162C127.532 204.58 125.425 203.787 123.84 202.202C122.254 200.617 121.462 198.509 121.462 195.88V193.27C121.462 190.641 122.254 188.533 123.84 186.948C125.425 185.363 127.532 184.57 130.162 184.57H142.052V182.25C142.052 181.67 141.858 181.187 141.472 180.8C141.085 180.413 140.602 180.22 140.022 180.22C137.508 180.22 134.724 180.336 131.67 180.568C128.654 180.8 126.218 180.974 124.362 181.09V173.84Z" fill="#1D98DB"/>
<path d="M37.736 201.854L37.0289 201.147L37.0289 201.147L37.736 201.854ZM5.546 201.854L4.83149 202.554L4.83885 202.561L4.84638 202.569L5.546 201.854ZM5.546 165.604L4.83889 164.897L4.83889 164.897L5.546 165.604ZM37.736 165.604L37.0215 166.304L37.0289 166.311L37.0364 166.319L37.736 165.604ZM31.08 174.42C31.08 173.106 30.7508 171.937 29.9171 171.103C29.0834 170.269 27.9141 169.94 26.6 169.94V171.94C27.6059 171.94 28.1766 172.191 28.5029 172.517C28.8292 172.843 29.08 173.414 29.08 174.42H31.08ZM26.6 169.94H16.74V171.94H26.6V169.94ZM16.74 169.94C15.4259 169.94 14.2566 170.269 13.4229 171.103C12.5892 171.937 12.26 173.106 12.26 174.42H14.26C14.26 173.414 14.5108 172.843 14.8371 172.517C15.1634 172.191 15.7341 171.94 16.74 171.94V169.94ZM12.26 174.42V192.98H14.26V174.42H12.26ZM12.26 192.98C12.26 194.294 12.5892 195.463 13.4229 196.297C14.2566 197.131 15.4259 197.46 16.74 197.46V195.46C15.7341 195.46 15.1634 195.209 14.8371 194.883C14.5108 194.557 14.26 193.986 14.26 192.98H12.26ZM16.74 197.46H26.6V195.46H16.74V197.46ZM26.6 197.46C27.9141 197.46 29.0834 197.131 29.9171 196.297C30.7508 195.463 31.08 194.294 31.08 192.98H29.08C29.08 193.986 28.8292 194.557 28.5029 194.883C28.1766 195.209 27.6059 195.46 26.6 195.46V197.46ZM31.08 192.98L31.08 174.42H29.08L29.08 192.98H31.08ZM39.52 192.98C39.52 196.916 38.6166 199.559 37.0289 201.147L38.4431 202.561C40.5674 200.437 41.52 197.164 41.52 192.98H39.52ZM37.0289 201.147C35.4831 202.693 32.8635 203.58 28.92 203.58V205.58C33.0965 205.58 36.3543 204.65 38.4431 202.561L37.0289 201.147ZM28.92 203.58H14.42V205.58H28.92V203.58ZM14.42 203.58C10.4789 203.58 7.83294 202.694 6.24563 201.139L4.84638 202.569C6.97106 204.649 10.2411 205.58 14.42 205.58V203.58ZM6.26051 201.154C4.70627 199.567 3.82 196.921 3.82 192.98H1.82C1.82 197.159 2.75107 200.429 4.83149 202.554L6.26051 201.154ZM3.82 192.98L3.82 174.42H1.82L1.82 192.98H3.82ZM3.82 174.42C3.82 170.476 4.70729 167.857 6.25311 166.311L4.83889 164.897C2.75005 166.986 1.82 170.244 1.82 174.42H3.82ZM6.25311 166.311C7.84086 164.723 10.4837 163.82 14.42 163.82V161.82C10.2363 161.82 6.96314 162.773 4.83889 164.897L6.25311 166.311ZM14.42 163.82H28.92V161.82H14.42V163.82ZM28.92 163.82C32.8587 163.82 35.4751 164.724 37.0215 166.304L38.4505 164.904C36.3622 162.772 33.1013 161.82 28.92 161.82V163.82ZM37.0364 166.319C38.6157 167.865 39.52 170.481 39.52 174.42H41.52C41.52 170.239 40.5683 166.978 38.4356 164.889L37.0364 166.319ZM39.52 174.42V192.98H41.52V174.42H39.52ZM60.2672 192.4L61.1434 191.918L60.8585 191.4H60.2672V192.4ZM55.9172 192.4V191.4H54.9172V192.4H55.9172ZM55.9172 204V205H56.9172V204H55.9172ZM45.7672 204H44.7672V205H45.7672V204ZM45.7672 173.26V172.26H44.7672V173.26H45.7672ZM55.9172 173.26H56.9172V172.26H55.9172V173.26ZM55.9172 184.57H54.9172V185.57H55.9172V184.57ZM60.5572 184.57V185.57H61.1752L61.4516 185.017L60.5572 184.57ZM63.7472 178.19L64.6416 178.637L64.6473 178.626L64.6526 178.614L63.7472 178.19ZM69.1992 173.144L68.8707 172.199L68.861 172.203L69.1992 173.144ZM75.3472 172.97L75.5433 171.989L75.5332 171.987L75.523 171.986L75.3472 172.97ZM76.7972 173.26H77.7972V172.44L76.9933 172.279L76.7972 173.26ZM76.7972 181.09V182.09H77.7972V181.09H76.7972ZM71.8672 182.83L70.9848 182.359L70.9786 182.371L70.9728 182.383L71.8672 182.83ZM68.9672 188.63L68.0728 188.183L67.8346 188.659L68.0969 189.123L68.9672 188.63ZM77.6672 204V205H79.3823L78.5374 203.507L77.6672 204ZM66.6472 204L65.771 204.482L66.0559 205H66.6472V204ZM60.2672 191.4H55.9172V193.4H60.2672V191.4ZM54.9172 192.4V204H56.9172V192.4H54.9172ZM55.9172 203H45.7672V205H55.9172V203ZM46.7672 204V173.26H44.7672V204H46.7672ZM45.7672 174.26H55.9172V172.26H45.7672V174.26ZM54.9172 173.26V184.57H56.9172V173.26H54.9172ZM55.9172 185.57H60.5572V183.57H55.9172V185.57ZM61.4516 185.017L64.6416 178.637L62.8528 177.743L59.6628 184.123L61.4516 185.017ZM64.6526 178.614C65.7047 176.37 67.3238 174.881 69.5374 174.085L68.861 172.203C66.1253 173.186 64.1096 175.061 62.8417 177.766L64.6526 178.614ZM69.5277 174.088C70.3279 173.81 71.0673 173.68 71.7512 173.68V171.68C70.8111 171.68 69.8491 171.859 68.8707 172.2L69.5277 174.088ZM71.7512 173.68C73.0179 173.68 74.1567 173.773 75.1714 173.954L75.523 171.986C74.3724 171.78 73.1138 171.68 71.7512 171.68V173.68ZM75.1511 173.951L76.6011 174.241L76.9933 172.279L75.5433 171.989L75.1511 173.951ZM75.7972 173.26V181.09H77.7972V173.26H75.7972ZM76.7972 180.09H74.7672V182.09H76.7972V180.09ZM74.7672 180.09C73.9591 180.09 73.2047 180.27 72.5417 180.668C71.8787 181.065 71.3651 181.646 70.9848 182.359L72.7495 183.301C72.9879 182.854 73.267 182.565 73.5707 182.382C73.8744 182.2 74.2606 182.09 74.7672 182.09V180.09ZM70.9728 182.383L68.0728 188.183L69.8616 189.077L72.7616 183.277L70.9728 182.383ZM68.0969 189.123L76.7969 204.493L78.5374 203.507L69.8374 188.137L68.0969 189.123ZM77.6672 203H66.6472V205H77.6672V203ZM67.5234 203.518L61.1434 191.918L59.391 192.882L65.771 204.482L67.5234 203.518ZM116.505 204V205H117.505V204H116.505ZM106.065 204H105.065V205H106.065V204ZM106.065 187.47H107.065V186.47H106.065V187.47ZM91.5645 187.47V186.47H90.5645V187.47H91.5645ZM91.5645 204V205H92.5645V204H91.5645ZM81.1245 204H80.1245V205H81.1245V204ZM81.1245 163.4V162.4H80.1245V163.4H81.1245ZM91.5645 163.4H92.5645V162.4H91.5645V163.4ZM91.5645 179.35H90.5645V180.35H91.5645V179.35ZM106.065 179.35V180.35H107.065V179.35H106.065ZM106.065 163.4V162.4H105.065V163.4H106.065ZM116.505 163.4H117.505V162.4H116.505V163.4ZM116.505 203H106.065V205H116.505V203ZM107.065 204V187.47H105.065V204H107.065ZM106.065 186.47H91.5645V188.47H106.065V186.47ZM90.5645 187.47V204H92.5645V187.47H90.5645ZM91.5645 203H81.1245V205H91.5645V203ZM82.1245 204V163.4H80.1245V204H82.1245ZM81.1245 164.4H91.5645V162.4H81.1245V164.4ZM90.5645 163.4V179.35H92.5645V163.4H90.5645ZM91.5645 180.35H106.065V178.35H91.5645V180.35ZM107.065 179.35V163.4H105.065V179.35H107.065ZM106.065 164.4H116.505V162.4H106.065V164.4ZM115.505 163.4V204H117.505V163.4H115.505ZM142.052 195.3L142.338 196.258L143.052 196.045V195.3H142.052ZM142.052 191.82H143.052V190.82H142.052V191.82ZM132.192 192.4L132.899 193.107L132.899 193.107L132.192 192.4ZM132.192 195.88L131.485 196.587L131.485 196.587L132.192 195.88ZM124.362 173.84L124.253 172.846L123.362 172.943V173.84H124.362ZM149.824 175.058L149.117 175.765L149.117 175.765L149.824 175.058ZM152.202 204V205H153.202V204H152.202ZM143.212 204L142.231 204.196L142.392 205H143.212V204ZM142.632 201.1L143.612 200.904L143.321 199.447L142.081 200.265L142.632 201.1ZM137.006 203.768L137.28 204.73L137.293 204.726L137.006 203.768ZM123.84 202.202L123.133 202.909L123.133 202.909L123.84 202.202ZM123.84 186.948L124.547 187.655L124.547 187.655L123.84 186.948ZM142.052 184.57V185.57H143.052V184.57H142.052ZM141.472 180.8L140.765 181.507L140.765 181.507L141.472 180.8ZM131.67 180.568L131.594 179.571L131.593 179.571L131.67 180.568ZM124.362 181.09H123.362V182.154L124.424 182.088L124.362 181.09ZM135.092 197.46C137.263 197.46 139.682 197.051 142.338 196.258L141.766 194.342C139.24 195.096 137.019 195.46 135.092 195.46V197.46ZM143.052 195.3V191.82H141.052V195.3H143.052ZM142.052 190.82H133.642V192.82H142.052V190.82ZM133.642 190.82C132.814 190.82 132.071 191.106 131.485 191.693L132.899 193.107C133.086 192.92 133.309 192.82 133.642 192.82V190.82ZM131.485 191.693C130.898 192.279 130.612 193.023 130.612 193.85H132.612C132.612 193.517 132.712 193.294 132.899 193.107L131.485 191.693ZM130.612 193.85V194.43H132.612V193.85H130.612ZM130.612 194.43C130.612 195.257 130.898 196.001 131.485 196.587L132.899 195.173C132.712 194.986 132.612 194.763 132.612 194.43H130.612ZM131.485 196.587C132.071 197.174 132.814 197.46 133.642 197.46V195.46C133.309 195.46 133.086 195.36 132.899 195.173L131.485 196.587ZM133.642 197.46H135.092V195.46H133.642V197.46ZM124.47 174.834C131.519 174.064 137.862 173.68 143.502 173.68V171.68C137.774 171.68 131.357 172.07 124.253 172.846L124.47 174.834ZM143.502 173.68C145.915 173.68 147.751 174.4 149.117 175.765L150.531 174.351C148.726 172.546 146.347 171.68 143.502 171.68V173.68ZM149.117 175.765C150.482 177.131 151.202 178.966 151.202 181.38H153.202C153.202 178.535 152.336 176.156 150.531 174.351L149.117 175.765ZM151.202 181.38V204H153.202V181.38H151.202ZM152.202 203H143.212V205H152.202V203ZM144.192 203.804L143.612 200.904L141.651 201.296L142.231 204.196L144.192 203.804ZM142.081 200.265C140.339 201.414 138.551 202.26 136.718 202.81L137.293 204.726C139.327 204.116 141.29 203.183 143.182 201.935L142.081 200.265ZM136.731 202.806C134.886 203.334 133.38 203.58 132.192 203.58V205.58C133.633 205.58 135.336 205.285 137.28 204.73L136.731 202.806ZM132.192 203.58H130.162V205.58H132.192V203.58ZM130.162 203.58C127.748 203.58 125.912 202.86 124.547 201.495L123.133 202.909C124.938 204.714 127.317 205.58 130.162 205.58V203.58ZM124.547 201.495C123.181 200.129 122.462 198.294 122.462 195.88H120.462C120.462 198.725 121.327 201.104 123.133 202.909L124.547 201.495ZM122.462 195.88V193.27H120.462V195.88H122.462ZM122.462 193.27C122.462 190.856 123.181 189.021 124.547 187.655L123.133 186.241C121.327 188.046 120.462 190.425 120.462 193.27H122.462ZM124.547 187.655C125.912 186.29 127.748 185.57 130.162 185.57V183.57C127.317 183.57 124.938 184.436 123.133 186.241L124.547 187.655ZM130.162 185.57H142.052V183.57H130.162V185.57ZM143.052 184.57V182.25H141.052V184.57H143.052ZM143.052 182.25C143.052 181.423 142.765 180.679 142.179 180.093L140.765 181.507C140.951 181.694 141.052 181.917 141.052 182.25H143.052ZM142.179 180.093C141.592 179.506 140.849 179.22 140.022 179.22V181.22C140.354 181.22 140.578 181.32 140.765 181.507L142.179 180.093ZM140.022 179.22C137.478 179.22 134.669 179.337 131.594 179.571L131.745 181.565C134.78 181.335 137.538 181.22 140.022 181.22V179.22ZM131.593 179.571C128.579 179.803 126.149 179.976 124.299 180.092L124.424 182.088C126.287 181.972 128.728 181.797 131.746 181.565L131.593 179.571ZM125.362 181.09V173.84H123.362V181.09H125.362Z" fill="black"/>
</svg>
