<svg width="19" height="19" viewBox="0 0 19 19" fill="none" xmlns="http://www.w3.org/2000/svg">
<path d="M6.76634 17.8748C7.05581 17.8748 7.29048 17.6404 7.29048 17.3513C7.29048 17.0623 7.05581 16.8279 6.76634 16.8279C6.47686 16.8279 6.24219 17.0623 6.24219 17.3513C6.24219 17.6404 6.47686 17.8748 6.76634 17.8748Z" fill="white" stroke="white" stroke-width="1.86364" stroke-miterlimit="10" stroke-linecap="round" stroke-linejoin="round"/>
<path d="M14.1023 17.8748C14.3918 17.8748 14.6264 17.6404 14.6264 17.3513C14.6264 17.0623 14.3918 16.8279 14.1023 16.8279C13.8128 16.8279 13.5781 17.0623 13.5781 17.3513C13.5781 17.6404 13.8128 17.8748 14.1023 17.8748Z" fill="white" stroke="white" stroke-width="1.86364" stroke-miterlimit="10" stroke-linecap="round" stroke-linejoin="round"/>
<path d="M1 1.12515H3.09659L5.19318 13.6873H15.6761L17.7727 4.26569H4.14489" stroke="white" stroke-width="1.86364" stroke-linecap="round" stroke-linejoin="round"/>
</svg>
