<?xml version='1.0' encoding='iso-8859-1'?>
<svg version="1.1" xmlns="http://www.w3.org/2000/svg" viewBox="0 0 8.64 8.64" xmlns:xlink="http://www.w3.org/1999/xlink" enable-background="new 0 0 8.64 8.64">
  <g>
    <g>
      <path fill="#020400" d="m6.96,0h-5.28c-0.265,0-0.48,0.215-0.48,0.48v7.68c0,0.265 0.215,0.48 0.48,0.48h5.28c0.265,0 0.479-0.215 0.479-0.479v-7.681c0.001-0.265-0.214-0.48-0.479-0.48zm-.339,.48l-.498,.498c-0.039-0.011-0.081-0.018-0.122-0.018h-3.361c-0.043,0-0.084,0.007-0.123,0.018l-.498-.498h4.602zm-.62,.959v5.761h-3.361v-5.761h3.361zm-4.321-.62l.498,.498c-0.011,0.039-0.018,0.08-0.018,0.122v5.761c0,0.042 0.008,0.083 0.019,0.122l-.499,.498v-7.001zm.339,7.341l.498-.498c0.039,0.011 0.08,0.018 0.123,0.018h3.36c0.042,0 0.083-0.007 0.122-0.018l.499,.498h-4.602zm4.941-.34l-.498-.498c0.011-0.039 0.018-0.08 0.018-0.122v-5.761c0-0.042-0.007-0.083-0.018-0.122l.498-.498v7.001z"/>
    </g>
  </g>
</svg>
