<svg width="24" height="24" viewBox="0 0 24 24" fill="none" xmlns="http://www.w3.org/2000/svg">
<path d="M17 21V19C17 17.9391 16.5786 16.9217 15.8284 16.1716C15.0783 15.4214 14.0609 15 13 15H5C3.93913 15 2.92172 15.4214 2.17157 16.1716C1.42143 16.9217 1 17.9391 1 19V21" stroke="black" stroke-linecap="round" stroke-linejoin="round"/>
<path d="M9 13C11.2091 13 13 11.2091 13 9C13 6.79086 11.2091 5 9 5C6.79086 5 5 6.79086 5 9C5 11.2091 6.79086 13 9 13Z" stroke="black" stroke-linecap="round" stroke-linejoin="round"/>
<path d="M22 20.87V18.87C21.9993 17.9837 21.7044 17.1228 21.1614 16.4223C20.6184 15.7219 19.8581 15.2216 19 15" stroke="black" stroke-linecap="round" stroke-linejoin="round"/>
<path d="M15 5C15.8604 5.2203 16.623 5.7207 17.1676 6.42231C17.7122 7.12392 18.0078 7.98683 18.0078 8.875C18.0078 9.76317 17.7122 10.6261 17.1676 11.3277C16.623 12.0293 15.8604 12.5297 15 12.75" stroke="black" stroke-linecap="round" stroke-linejoin="round"/>
</svg>
